<mxfile host="Electron" agent="Mozilla/5.0 (Macintosh; Intel Mac OS X 10_15_7) AppleWebKit/537.36 (KHTML, like Gecko) draw.io/26.0.4 Chrome/128.0.6613.186 Electron/32.2.5 Safari/537.36" version="26.0.4">
  <diagram name="Страница — 1" id="KAqNGYYojrm31rv1O0AR">
    <mxGraphModel dx="2581" dy="1087" grid="1" gridSize="10" guides="1" tooltips="1" connect="1" arrows="1" fold="1" page="1" pageScale="1" pageWidth="827" pageHeight="1169" math="0" shadow="0">
      <root>
        <mxCell id="0" />
        <mxCell id="1" parent="0" />
        <mxCell id="skFH6xWukxrocvpS00gs-1" value="&lt;table border=&quot;1&quot; width=&quot;100%&quot; cellpadding=&quot;8&quot; style=&quot;width: 100% ; height: 100% ; border-collapse: collapse&quot;&gt;&lt;tbody&gt;&lt;tr style=&quot;background-color: rgb(167, 201, 66); color: rgb(255, 255, 255); border: 1px solid rgb(152, 191, 33);&quot;&gt;&lt;th&gt;&lt;br&gt;&lt;/th&gt;&lt;th&gt;&lt;span style=&quot;font-size: 16px;&quot;&gt;Продажи в сети отделений&lt;/span&gt;&lt;br&gt;&lt;/th&gt;&lt;th&gt;&lt;span style=&quot;font-size: 16px;&quot;&gt;Продажи через кол-центр&lt;/span&gt;&lt;br&gt;&lt;/th&gt;&lt;th&gt;&lt;span style=&quot;font-size: 16px;&quot;&gt;digital-оповещения клиентов&lt;/span&gt;&lt;br&gt;&lt;/th&gt;&lt;th&gt;&lt;span style=&quot;font-size: 16px;&quot;&gt;Обслуживание депозитных процессов&lt;/span&gt;&lt;br&gt;&lt;/th&gt;&lt;td&gt;&lt;b&gt;&lt;font style=&quot;font-size: 16px;&quot;&gt;Обслуживание кредитных процессов&lt;/font&gt;&lt;/b&gt;&lt;/td&gt;&lt;th&gt;&lt;font style=&quot;font-size: 16px;&quot;&gt;Управление договорами&lt;/font&gt;&lt;/th&gt;&lt;/tr&gt;&lt;tr style=&quot;border: 1px solid rgb(152, 191, 33);&quot;&gt;&lt;td style=&quot;background-color: rgb(167, 201, 66); color: rgb(255, 255, 255); border: 1px solid rgb(152, 191, 33);&quot;&gt;&lt;div style=&quot;&quot;&gt;&lt;strong style=&quot;box-sizing: inherit; color: rgba(0, 0, 0, 0.85); font-family: &amp;quot;YS Text&amp;quot;, sans-serif; font-size: 18px; white-space: pre-line; background-color: rgb(255, 255, 255);&quot;&gt;Управление обслуживанием в сети отделений.&lt;/strong&gt;&lt;br&gt;&lt;/div&gt;&lt;/td&gt;&lt;td style=&quot;&quot;&gt;&lt;/td&gt;&lt;td style=&quot;&quot;&gt;&lt;/td&gt;&lt;td style=&quot;&quot;&gt;&lt;font style=&quot;font-size: 16px;&quot;&gt;&lt;br&gt;&lt;/font&gt;&lt;/td&gt;&lt;td style=&quot;&quot;&gt;&lt;font style=&quot;font-size: 16px;&quot;&gt;&lt;br&gt;&lt;/font&gt;&lt;/td&gt;&lt;td&gt;&lt;font style=&quot;font-size: 16px;&quot;&gt;&lt;br&gt;&lt;/font&gt;&lt;/td&gt;&lt;td style=&quot;&quot;&gt;&lt;font style=&quot;font-size: 16px;&quot;&gt;&lt;br&gt;&lt;/font&gt;&lt;/td&gt;&lt;/tr&gt;&lt;tr style=&quot;background-color: rgb(234, 242, 211); border: 1px solid rgb(152, 191, 33);&quot;&gt;&lt;td style=&quot;background-color: rgb(167, 201, 66); color: rgb(255, 255, 255); border: 1px solid rgb(152, 191, 33);&quot;&gt;&lt;strong style=&quot;box-sizing: inherit; color: rgba(0, 0, 0, 0.85); font-family: &amp;quot;YS Text&amp;quot;, sans-serif; font-size: 18px; white-space: pre-line; background-color: rgb(255, 255, 255);&quot;&gt;Управление IT.&lt;/strong&gt;&lt;br&gt;&lt;/td&gt;&lt;td style=&quot;&quot;&gt;&lt;/td&gt;&lt;td style=&quot;&quot;&gt;&lt;/td&gt;&lt;td style=&quot;&quot;&gt;&lt;span style=&quot;background-color: rgb(255, 255, 255);&quot;&gt;&lt;font style=&quot;font-size: 16px;&quot;&gt;&lt;br&gt;&lt;/font&gt;&lt;/span&gt;&lt;/td&gt;&lt;td style=&quot;&quot;&gt;&lt;span style=&quot;background-color: rgb(255, 255, 255);&quot;&gt;&lt;font style=&quot;font-size: 16px;&quot;&gt;&lt;br&gt;&lt;/font&gt;&lt;/span&gt;&lt;/td&gt;&lt;td&gt;&lt;span style=&quot;background-color: rgb(255, 255, 255);&quot;&gt;&lt;font style=&quot;font-size: 16px;&quot;&gt;&lt;br&gt;&lt;/font&gt;&lt;/span&gt;&lt;/td&gt;&lt;td style=&quot;&quot;&gt;&lt;font style=&quot;font-size: 16px;&quot;&gt;&lt;br&gt;&lt;/font&gt;&lt;/td&gt;&lt;/tr&gt;&lt;tr style=&quot;border: 1px solid rgb(152, 191, 33);&quot;&gt;&lt;td style=&quot;background-color: rgb(167, 201, 66); color: rgb(255, 255, 255); border: 1px solid rgb(152, 191, 33);&quot;&gt;&lt;div style=&quot;&quot;&gt;&lt;strong style=&quot;box-sizing: inherit; color: rgba(0, 0, 0, 0.85); font-family: &amp;quot;YS Text&amp;quot;, sans-serif; font-size: 18px; white-space: pre-line; background-color: rgb(255, 255, 255);&quot;&gt;Управление обслуживанием депозитных продуктов.&lt;/strong&gt;&lt;br&gt;&lt;/div&gt;&lt;/td&gt;&lt;td style=&quot;&quot;&gt;&lt;/td&gt;&lt;td style=&quot;&quot;&gt;&lt;/td&gt;&lt;td style=&quot;&quot;&gt;&lt;font style=&quot;font-size: 16px;&quot;&gt;&lt;br&gt;&lt;/font&gt;&lt;/td&gt;&lt;td style=&quot;&quot;&gt;&lt;font style=&quot;font-size: 16px;&quot;&gt;&lt;br&gt;&lt;/font&gt;&lt;/td&gt;&lt;td&gt;&lt;font style=&quot;font-size: 16px;&quot;&gt;&lt;br&gt;&lt;/font&gt;&lt;/td&gt;&lt;td style=&quot;&quot;&gt;&lt;font style=&quot;font-size: 16px;&quot;&gt;&lt;br&gt;&lt;/font&gt;&lt;/td&gt;&lt;/tr&gt;&lt;tr style=&quot;background-color: rgb(234, 242, 211); border: 1px solid rgb(152, 191, 33);&quot;&gt;&lt;td style=&quot;background-color: rgb(167, 201, 66); color: rgb(255, 255, 255); border: 1px solid rgb(152, 191, 33);&quot;&gt;&lt;div style=&quot;&quot;&gt;&lt;strong style=&quot;box-sizing: inherit; color: rgba(0, 0, 0, 0.85); font-family: &amp;quot;YS Text&amp;quot;, sans-serif; font-size: 18px; white-space: pre-line; background-color: rgb(255, 255, 255);&quot;&gt;Управление обслуживанием кредитных продуктов.&lt;/strong&gt;&lt;br&gt;&lt;/div&gt;&lt;/td&gt;&lt;td style=&quot;&quot;&gt;&lt;/td&gt;&lt;td style=&quot;&quot;&gt;&lt;/td&gt;&lt;td style=&quot;&quot;&gt;&lt;font style=&quot;font-size: 16px;&quot;&gt;&lt;br&gt;&lt;/font&gt;&lt;/td&gt;&lt;td style=&quot;&quot;&gt;&lt;font style=&quot;font-size: 16px;&quot;&gt;&lt;br&gt;&lt;/font&gt;&lt;/td&gt;&lt;td&gt;&lt;font style=&quot;font-size: 16px;&quot;&gt;&lt;br&gt;&lt;/font&gt;&lt;/td&gt;&lt;td style=&quot;&quot;&gt;&lt;font style=&quot;font-size: 16px;&quot;&gt;&lt;br&gt;&lt;/font&gt;&lt;/td&gt;&lt;/tr&gt;&lt;tr style=&quot;border: 1px solid rgb(152, 191, 33);&quot;&gt;&lt;td style=&quot;background-color: rgb(167, 201, 66); color: rgb(255, 255, 255); border: 1px solid rgb(152, 191, 33);&quot;&gt;&lt;strong style=&quot;box-sizing: inherit; color: rgba(0, 0, 0, 0.85); font-family: &amp;quot;YS Text&amp;quot;, sans-serif; font-size: 18px; white-space: pre-line; background-color: rgb(255, 255, 255);&quot;&gt;Кол-центр банка «Стандарт».&lt;/strong&gt;&lt;/td&gt;&lt;td style=&quot;&quot;&gt;&lt;font style=&quot;font-size: 16px;&quot;&gt;&lt;br&gt;&lt;/font&gt;&lt;/td&gt;&lt;td style=&quot;&quot;&gt;&lt;font style=&quot;font-size: 16px;&quot;&gt;&lt;br&gt;&lt;/font&gt;&lt;/td&gt;&lt;td style=&quot;&quot;&gt;&lt;font style=&quot;font-size: 16px;&quot;&gt;&lt;br&gt;&lt;/font&gt;&lt;/td&gt;&lt;td style=&quot;&quot;&gt;&lt;font style=&quot;font-size: 16px;&quot;&gt;&lt;br&gt;&lt;/font&gt;&lt;/td&gt;&lt;td&gt;&lt;font style=&quot;font-size: 16px;&quot;&gt;&lt;br&gt;&lt;/font&gt;&lt;/td&gt;&lt;td style=&quot;&quot;&gt;&lt;font style=&quot;font-size: 16px;&quot;&gt;&lt;br&gt;&lt;/font&gt;&lt;/td&gt;&lt;/tr&gt;&lt;tr style=&quot;background-color: rgb(234, 242, 211); border: 1px solid rgb(152, 191, 33);&quot;&gt;&lt;td style=&quot;background-color: rgb(167, 201, 66); color: rgb(255, 255, 255); border: 1px solid rgb(152, 191, 33);&quot;&gt;&lt;strong style=&quot;box-sizing: inherit; color: rgba(0, 0, 0, 0.85); font-family: &amp;quot;YS Text&amp;quot;, sans-serif; font-size: 18px; white-space: pre-line; background-color: rgb(255, 255, 255);&quot;&gt;Партнёрский кол-центр.&lt;/strong&gt;&lt;/td&gt;&lt;td style=&quot;&quot;&gt;&lt;span style=&quot;background-color: rgb(255, 255, 255);&quot;&gt;&lt;font style=&quot;font-size: 16px;&quot;&gt;&lt;br&gt;&lt;/font&gt;&lt;/span&gt;&lt;/td&gt;&lt;td style=&quot;&quot;&gt;&lt;span style=&quot;background-color: rgb(255, 255, 255);&quot;&gt;&lt;font style=&quot;font-size: 16px;&quot;&gt;&lt;br&gt;&lt;/font&gt;&lt;/span&gt;&lt;/td&gt;&lt;td style=&quot;&quot;&gt;&lt;span style=&quot;background-color: rgb(255, 255, 255);&quot;&gt;&lt;font style=&quot;font-size: 16px;&quot;&gt;&lt;br&gt;&lt;/font&gt;&lt;/span&gt;&lt;/td&gt;&lt;td style=&quot;&quot;&gt;&lt;span style=&quot;background-color: rgb(255, 255, 255);&quot;&gt;&lt;font style=&quot;font-size: 16px;&quot;&gt;&lt;br&gt;&lt;/font&gt;&lt;/span&gt;&lt;/td&gt;&lt;td&gt;&lt;span style=&quot;background-color: rgb(255, 255, 255);&quot;&gt;&lt;font style=&quot;font-size: 16px;&quot;&gt;&lt;br&gt;&lt;/font&gt;&lt;/span&gt;&lt;/td&gt;&lt;td style=&quot;&quot;&gt;&lt;font style=&quot;font-size: 16px;&quot;&gt;&lt;br&gt;&lt;/font&gt;&lt;/td&gt;&lt;/tr&gt;&lt;tr style=&quot;border: 1px solid rgb(152, 191, 33);&quot;&gt;&lt;td style=&quot;background-color: rgb(167, 201, 66); color: rgb(255, 255, 255); border: 1px solid rgb(152, 191, 33);&quot;&gt;&lt;div style=&quot;&quot;&gt;&lt;strong style=&quot;box-sizing: inherit; color: rgba(0, 0, 0, 0.85); font-family: &amp;quot;YS Text&amp;quot;, sans-serif; font-size: 18px; white-space: pre-line; background-color: rgb(255, 255, 255);&quot;&gt;Команда цифровой трансформации розничного бизнеса.&lt;/strong&gt;&lt;br&gt;&lt;/div&gt;&lt;/td&gt;&lt;td&gt;&lt;font style=&quot;font-size: 16px;&quot;&gt;&lt;br&gt;&lt;/font&gt;&lt;/td&gt;&lt;td&gt;&lt;font style=&quot;font-size: 16px;&quot;&gt;&lt;br&gt;&lt;/font&gt;&lt;/td&gt;&lt;td&gt;&lt;font style=&quot;font-size: 16px;&quot;&gt;&lt;br&gt;&lt;/font&gt;&lt;/td&gt;&lt;td&gt;&lt;font style=&quot;font-size: 16px;&quot;&gt;&lt;br&gt;&lt;/font&gt;&lt;/td&gt;&lt;td&gt;&lt;font style=&quot;font-size: 16px;&quot;&gt;&lt;br&gt;&lt;/font&gt;&lt;/td&gt;&lt;td&gt;&lt;font style=&quot;font-size: 16px;&quot;&gt;&lt;br&gt;&lt;/font&gt;&lt;/td&gt;&lt;/tr&gt;&lt;/tbody&gt;&lt;/table&gt;" style="text;html=1;strokeColor=#c0c0c0;fillColor=#336600;overflow=fill;rounded=0;shadow=1;fontSize=14;fontColor=#000000;" vertex="1" parent="1">
          <mxGeometry x="-810" y="20" width="1840" height="870" as="geometry" />
        </mxCell>
        <mxCell id="skFH6xWukxrocvpS00gs-2" value="" style="rounded=1;whiteSpace=wrap;html=1;" vertex="1" parent="1">
          <mxGeometry x="40" y="390" width="120" height="60" as="geometry" />
        </mxCell>
        <mxCell id="skFH6xWukxrocvpS00gs-3" value="SMS-шлюз / Телеком оператор." style="rounded=1;whiteSpace=wrap;html=1;fontSize=24;" vertex="1" parent="1">
          <mxGeometry x="-500" y="238" width="620" height="40" as="geometry" />
        </mxCell>
        <mxCell id="skFH6xWukxrocvpS00gs-4" value="&lt;font style=&quot;font-size: 96px;&quot;&gt;АБС&lt;/font&gt;" style="rounded=1;whiteSpace=wrap;html=1;" vertex="1" parent="1">
          <mxGeometry x="-30" y="331" width="950" height="310" as="geometry" />
        </mxCell>
        <mxCell id="skFH6xWukxrocvpS00gs-5" value="&lt;font style=&quot;font-size: 20px;&quot;&gt;Система call-цнтра.&lt;/font&gt;" style="rounded=1;whiteSpace=wrap;html=1;" vertex="1" parent="1">
          <mxGeometry x="-295" y="598" width="210" height="60" as="geometry" />
        </mxCell>
        <mxCell id="skFH6xWukxrocvpS00gs-6" value="Система партнёрского call-центра." style="rounded=1;whiteSpace=wrap;html=1;fontSize=18;" vertex="1" parent="1">
          <mxGeometry x="-298" y="682" width="216" height="62" as="geometry" />
        </mxCell>
      </root>
    </mxGraphModel>
  </diagram>
</mxfile>
